<svg xmlns="http://www.w3.org/2000/svg" xmlns:xlink="http://www.w3.org/1999/xlink" width="1617" height="800" viewBox="0 0 1617 800">
  <defs>
    <clipPath id="clip-ApplicationWorkflow">
      <rect width="1617" height="800"/>
    </clipPath>
  </defs>
  <g id="ApplicationWorkflow" clip-path="url(#clip-ApplicationWorkflow)">
    <rect width="1617" height="800" fill="#fff"/>
    <g id="Experience_Decisioning" data-name="Experience Decisioning" transform="translate(-910 -229)">
      <g id="Customer_Journey_Analytics" data-name="Customer Journey  Analytics" transform="translate(976 540)">
        <g id="Customer_Journey_Analytics-2" data-name="Customer Journey  Analytics">
          <rect id="BGContainer" width="222" height="178" rx="8" fill="#3b4253"/>
          <rect id="hover" width="222" height="178" rx="8" fill="#0091ff" opacity="0"/>
        </g>
        <text id="Ingest_Data" data-name="Ingest 
Data" transform="translate(111 86)" fill="#fff" font-size="24" font-family="AdobeClean-ExtraBold, Adobe Clean" font-weight="800"><tspan x="-33.96" y="0">Ingest </tspan><tspan x="-24.024" y="30">Data</tspan></text>
      </g>
    </g>
    <g id="Experience_Decisioning-2" data-name="Experience Decisioning" transform="translate(-606 -229)">
      <g id="Customer_Journey_Analytics-3" data-name="Customer Journey  Analytics" transform="translate(976 540)">
        <g id="Customer_Journey_Analytics-4" data-name="Customer Journey  Analytics">
          <rect id="BGContainer-2" data-name="BGContainer" width="222" height="178" rx="8" fill="#3b4253"/>
          <rect id="hover-2" data-name="hover" width="222" height="178" rx="8" fill="#0091ff" opacity="0"/>
        </g>
        <text id="Harmonize_Data" data-name="Harmonize
Data" transform="translate(111 86)" fill="#fff" font-size="24" font-family="AdobeClean-ExtraBold, Adobe Clean" font-weight="800"><tspan x="-56.736" y="0">Harmonize</tspan><tspan x="-24.024" y="30">Data</tspan></text>
      </g>
    </g>
    <g id="Experience_Decisioning-3" data-name="Experience Decisioning" transform="translate(16 -407)">
      <g id="Customer_Journey_Analytics-5" data-name="Customer Journey  Analytics" transform="translate(976 540)">
        <g id="Customer_Journey_Analytics-6" data-name="Customer Journey  Analytics">
          <rect id="BGContainer-3" data-name="BGContainer" width="222" height="178" rx="8" fill="#3b4253"/>
          <rect id="hover-3" data-name="hover" width="222" height="178" rx="8" fill="#0091ff" opacity="0"/>
        </g>
        <g id="Customer_Journey_Analytics-7" data-name="Customer Journey  Analytics">
          <rect id="BGContainer-4" data-name="BGContainer" width="222" height="178" rx="8" fill="#3b4253"/>
          <rect id="hover-4" data-name="hover" width="222" height="178" rx="8" fill="#0091ff" opacity="0"/>
        </g>
        <text id="Train_Score_Models" data-name="Train &amp; Score
Models" transform="translate(112 86)" fill="#fff" font-size="24" font-family="AdobeClean-ExtraBold, Adobe Clean" font-weight="800"><tspan x="-68.556" y="0">Train &amp; Score</tspan><tspan x="-37.668" y="30">Models</tspan></text>
      </g>
    </g>
    <g id="Experience_Decisioning-4" data-name="Experience Decisioning" transform="translate(16 -51)">
      <g id="Customer_Journey_Analytics-8" data-name="Customer Journey  Analytics" transform="translate(976 540)">
        <g id="Customer_Journey_Analytics-9" data-name="Customer Journey  Analytics">
          <rect id="BGContainer-5" data-name="BGContainer" width="222" height="178" rx="8" fill="#3b4253"/>
          <rect id="hover-5" data-name="hover" width="222" height="178" rx="8" fill="#0091ff" opacity="0"/>
        </g>
        <g id="Customer_Journey_Analytics-10" data-name="Customer Journey  Analytics">
          <rect id="BGContainer-6" data-name="BGContainer" width="222" height="178" rx="8" fill="#3b4253"/>
          <rect id="hover-6" data-name="hover" width="222" height="178" rx="8" fill="#0091ff" opacity="0"/>
        </g>
        <text id="Create_Plans" data-name="Create
Plans" transform="translate(111 86)" fill="#fff" font-size="24" font-family="AdobeClean-ExtraBold, Adobe Clean" font-weight="800"><tspan x="-33.432" y="0">Create</tspan><tspan x="-28.104" y="30">Plans</tspan></text>
      </g>
    </g>
    <g id="Smock_DataCheck_18_N" transform="translate(472 339)">
      <rect id="Canvas" width="18" height="18" fill="#ff13dc" opacity="0"/>
      <ellipse id="Ellipse_8" data-name="Ellipse 8" cx="8" cy="2.5" rx="8" ry="2.5" transform="translate(1 1)" fill="#fff"/>
      <path id="Path_89865" data-name="Path 89865" d="M7.35,13.5a6.15,6.15,0,0,1,.171-1.42C5.01,11.9,1.737,11.3,1,10.135V14.5c0,1.321,3.284,2.4,7.439,2.491A6.117,6.117,0,0,1,7.35,13.5Z" fill="#fff"/>
      <path id="Path_89866" data-name="Path 89866" d="M13.5,7.35a6.118,6.118,0,0,1,3.5,1.1V5.135c-1.224,1.548-5.532,2-8,2s-7.106-.584-8-2V8.5c0,1.264,3,2.305,6.9,2.474A6.146,6.146,0,0,1,13.5,7.35Z" fill="#fff"/>
      <path id="Path_89867" data-name="Path 89867" d="M13.5,9.05a4.45,4.45,0,1,0,4.45,4.45A4.45,4.45,0,0,0,13.5,9.05Zm-1.169,7.156-2.064-2.063a.25.25,0,0,1,0-.354l.518-.518a.25.25,0,0,1,.354,0L12.5,14.637l3.053-3.053a.25.25,0,0,1,.354,0l.521.521a.25.25,0,0,1,0,.354l-3.75,3.75a.25.25,0,0,1-.351,0Z" fill="#fff"/>
    </g>
    <g id="Smock_Data_18_N" transform="translate(168 339)">
      <rect id="Canvas-2" data-name="Canvas" width="18" height="18" fill="#ff13dc" opacity="0"/>
      <ellipse id="Ellipse_9" data-name="Ellipse 9" cx="8" cy="2.5" rx="8" ry="2.5" transform="translate(1 1)" fill="#fff"/>
      <path id="Path_89868" data-name="Path 89868" d="M9,12.137c-2.468,0-7.106-.585-8-2V14.5C1,15.88,4.582,17,9,17s8-1.12,8-2.5V10.135C15.776,11.682,11.468,12.137,9,12.137Z" fill="#fff"/>
      <path id="Path_89869" data-name="Path 89869" d="M9,7.137c-2.468,0-7.106-.584-8-2V8.5C1,9.88,4.582,11,9,11s8-1.12,8-2.5V5.135C15.776,6.682,11.468,7.137,9,7.137Z" fill="#fff"/>
    </g>
    <g id="Smock_FileChart_18_N" transform="translate(1094 517)">
      <rect id="Canvas-3" data-name="Canvas" width="18" height="18" fill="#ff13dc" opacity="0"/>
      <path id="Path_89873" data-name="Path 89873" d="M10,1V6h5Z" fill="#fff"/>
      <path id="Path_89874" data-name="Path 89874" d="M9.5,7H15v9.5a.5.5,0,0,1-.5.5H3.5a.5.5,0,0,1-.5-.5V1.5A.5.5,0,0,1,3.5,1H9V6.5A.5.5,0,0,0,9.5,7Zm.25,5H8.25a.25.25,0,0,0-.25.25v2.5a.25.25,0,0,0,.25.25h1.5a.25.25,0,0,0,.25-.25v-2.5A.25.25,0,0,0,9.75,12Zm-3,1H5.25a.25.25,0,0,0-.25.25v1.5a.25.25,0,0,0,.25.25h1.5A.25.25,0,0,0,7,14.75v-1.5A.25.25,0,0,0,6.75,13Zm6-3h-1.5a.25.25,0,0,0-.25.25v4.5a.25.25,0,0,0,.25.25h1.5a.25.25,0,0,0,.25-.25v-4.5A.25.25,0,0,0,12.75,10Z" fill="#fff"/>
    </g>
    <g id="Smock_FileData_18_N" transform="translate(1094 161)">
      <rect id="Canvas-4" data-name="Canvas" width="18" height="18" fill="#ff13dc" opacity="0"/>
      <path id="Path_89875" data-name="Path 89875" d="M8,1V6H3Z" fill="#fff"/>
      <path id="Path_89876" data-name="Path 89876" d="M10,17V8.931c0-1.65,2.333-2.4,4.5-2.4.166,0,.333.012.5.022V1.5a.5.5,0,0,0-.5-.5H9V6.5a.5.5,0,0,1-.5.5H3v9.5a.5.5,0,0,0,.5.5Z" fill="#fff"/>
      <path id="Path_89877" data-name="Path 89877" d="M14.5,14c-1.933,0-3.5-.627-3.5-1.4v-2c0,.773,1.567,1.533,3.5,1.533S18,11.373,18,10.6v2C18,13.373,16.433,14,14.5,14ZM18,16.59V14.01c0,.773-1.567,1.4-3.5,1.4s-3.5-.627-3.5-1.4v2.58c0,.773,1.567,1.4,3.5,1.4S18,17.363,18,16.59Zm0-7.534c0-.773-1.6-1.313-3.531-1.313S11,8.283,11,9.056s1.567,1.4,3.5,1.4S18,9.829,18,9.056Z" fill="#fff"/>
    </g>
    <path id="Arrow_02_a" data-name="Arrow 02 a" d="M164.047,78.481V36.056S.854,39.2-5.076,36.056-9.095-35.615-9.095-35.615" transform="translate(906.019 390.542) rotate(-90)" fill="none" stroke="#b1b8c9" stroke-width="2"/>
    <path id="Arrow_02_a-2" data-name="Arrow 02 a" d="M173.436,0V42.424s-163.193-3.142-169.124,0S.294,114.1.294,114.1" transform="translate(1214 400) rotate(-90)" fill="none" stroke="#b1b8c9" stroke-width="2"/>
    <path id="Arrow_02_a-3" data-name="Arrow 02 a" d="M173.48,0V42.424s-163.1-3.879-169.124,0S-.026,113.853-.026,113.853" transform="translate(984.568 399.975) rotate(90)" fill="none" stroke="#b1b8c9" stroke-width="2"/>
    <path id="Arrow_02_a-4" data-name="Arrow 02 a" d="M173.71,113.853V71.429s-163.1,3.879-169.124,0S.2,0,.2,0" transform="translate(1327.285 400) rotate(90)" fill="none" stroke="#b1b8c9" stroke-width="2"/>
    <path id="Arrow_02_b" data-name="Arrow 02 b" d="M4,0,8,8H0Z" transform="translate(992.432 223) rotate(90)" fill="red"/>
    <path id="Arrow_02_b-2" data-name="Arrow 02 b" d="M4,0,8,8H0Z" transform="translate(1316 396) rotate(90)" fill="red"/>
    <path id="Arrow_02_b-3" data-name="Arrow 02 b" d="M4,0,8,8H0Z" transform="translate(992.568 570) rotate(90)" fill="red"/>
    <g id="Arrow_02" data-name="Arrow 02" transform="translate(287.789 396)">
      <path id="Arrow_02_b-4" data-name="Arrow 02 b" d="M4,0,8,8H0Z" transform="translate(82.211) rotate(90)" fill="red"/>
      <path id="Arrow_02_a-5" data-name="Arrow 02 a" d="M0,0V74.211" transform="translate(74.211 4) rotate(90)" fill="none" stroke="#b1b8c9" stroke-width="2"/>
    </g>
    <g id="Arrow_02-2" data-name="Arrow 02" transform="translate(591.789 396)">
      <path id="Arrow_02_b-5" data-name="Arrow 02 b" d="M4,0,8,8H0Z" transform="translate(82.211) rotate(90)" fill="red"/>
      <path id="Arrow_02_a-6" data-name="Arrow 02 a" d="M0,0V74.211" transform="translate(74.211 4) rotate(90)" fill="none" stroke="#b1b8c9" stroke-width="2"/>
    </g>
    <g id="Experience_Decisioning-5" data-name="Experience Decisioning" transform="translate(-302 -229)">
      <g id="Customer_Journey_Analytics-11" data-name="Customer Journey  Analytics" transform="translate(976 540)">
        <g id="Customer_Journey_Analytics-12" data-name="Customer Journey  Analytics">
          <rect id="BGContainer-7" data-name="BGContainer" width="222" height="178" rx="8" fill="#3b4253"/>
          <rect id="hover-7" data-name="hover" width="222" height="178" rx="8" fill="#0091ff" opacity="0"/>
        </g>
        <text id="Configure_Models" data-name="Configure
Models" transform="translate(111 86)" fill="#fff" font-size="24" font-family="AdobeClean-ExtraBold, Adobe Clean" font-weight="800"><tspan x="-50.112" y="0">Configure</tspan><tspan x="-37.668" y="30">Models</tspan></text>
      </g>
    </g>
    <g id="Experience_Decisioning-6" data-name="Experience Decisioning" transform="translate(-302 -229)">
      <g id="Customer_Journey_Analytics-13" data-name="Customer Journey  Analytics" transform="translate(976 540)">
        <g id="Customer_Journey_Analytics-14" data-name="Customer Journey  Analytics">
          <rect id="BGContainer-8" data-name="BGContainer" width="222" height="178" rx="8" fill="#3b4253"/>
          <rect id="hover-8" data-name="hover" width="222" height="178" rx="8" fill="#0091ff" opacity="0"/>
        </g>
        <text id="Configure_Models-2" data-name="Configure
Models" transform="translate(111 86)" fill="#fff" font-size="24" font-family="AdobeClean-ExtraBold, Adobe Clean" font-weight="800"><tspan x="-50.112" y="0">Configure</tspan><tspan x="-37.668" y="30">Models</tspan></text>
      </g>
    </g>
    <g id="Experience_Decisioning-7" data-name="Experience Decisioning" transform="translate(340 -229)">
      <g id="Customer_Journey_Analytics-15" data-name="Customer Journey  Analytics" transform="translate(976 540)">
        <g id="Customer_Journey_Analytics-16" data-name="Customer Journey  Analytics">
          <rect id="BGContainer-9" data-name="BGContainer" width="222" height="178" rx="8" fill="#3b4253"/>
          <rect id="hover-9" data-name="hover" width="222" height="178" rx="8" fill="#0091ff" opacity="0"/>
        </g>
        <text id="Overview_Dashboard" data-name="Overview
Dashboard" transform="translate(111 86)" fill="#fff" font-size="24" font-family="AdobeClean-ExtraBold, Adobe Clean" font-weight="800"><tspan x="-49.788" y="0">Overview</tspan><tspan x="-56.232" y="30">Dashboard</tspan></text>
      </g>
    </g>
    <g id="Smock_FileGear_18_N" transform="translate(776 339)">
      <rect id="Canvas-5" data-name="Canvas" width="18" height="18" fill="#ff13dc" opacity="0"/>
      <path id="Path_89870" data-name="Path 89870" d="M17.6,12.893H16.534a3.071,3.071,0,0,0-.45-1.09l.757-.757a.3.3,0,0,0,0-.429l-.46-.46a.3.3,0,0,0-.429,0l-.755.757a3.073,3.073,0,0,0-1.089-.45V9.4a.3.3,0,0,0-.3-.3H13.2a.3.3,0,0,0-.3.3v1.062a3.073,3.073,0,0,0-1.089.45l-.756-.756a.3.3,0,0,0-.429,0l-.46.46a.3.3,0,0,0,0,.429l.757.757a3.071,3.071,0,0,0-.45,1.089H9.4a.3.3,0,0,0-.3.3v.607a.3.3,0,0,0,.3.3h1.062a3.071,3.071,0,0,0,.45,1.089l-.757.757a.3.3,0,0,0,0,.429l.46.46a.3.3,0,0,0,.429,0l.757-.757a3.073,3.073,0,0,0,1.089.45V17.6a.3.3,0,0,0,.3.3H13.8a.3.3,0,0,0,.3-.3V16.534a3.073,3.073,0,0,0,1.089-.45l.757.757a.3.3,0,0,0,.429,0l.46-.46a.3.3,0,0,0,0-.429l-.757-.755a3.071,3.071,0,0,0,.45-1.09H17.6a.3.3,0,0,0,.3-.3V13.2a.3.3,0,0,0-.3-.3ZM13.5,15.25a1.75,1.75,0,1,1,1.75-1.75A1.75,1.75,0,0,1,13.5,15.25Z" fill="#fff"/>
      <path id="Path_89871" data-name="Path 89871" d="M8,1V6H3Z" fill="#fff"/>
      <path id="Path_89872" data-name="Path 89872" d="M8.25,13.5A5.25,5.25,0,0,1,13.5,8.25a5.189,5.189,0,0,1,1.5.244V1.5a.5.5,0,0,0-.5-.5H9V6.5a.5.5,0,0,1-.5.5H3v9.5a.5.5,0,0,0,.5.5H9.613A5.212,5.212,0,0,1,8.25,13.5Z" fill="#fff"/>
    </g>
    <g id="Smock_Dashboard_18_N" transform="translate(1418 339)">
      <rect id="Canvas-6" data-name="Canvas" width="18" height="18" fill="#ff13dc" opacity="0"/>
      <path id="Path_89878" data-name="Path 89878" d="M3.662,14.026a6.635,6.635,0,0,1-1.328-3.9A6.742,6.742,0,0,1,8.806,3.37a6.666,6.666,0,0,1,5.532,10.656.362.362,0,0,0,.05.5l.466.387a.366.366,0,0,0,.516-.044l.008-.009a8,8,0,1,0-12.757,0,.364.364,0,0,0,.512.062l.011-.009.466-.388A.362.362,0,0,0,3.662,14.026Z" fill="#fff"/>
      <path id="Path_89879" data-name="Path 89879" d="M10.42,11.763a1.454,1.454,0,1,1-1.738-1.1h0c.374-.083,2.767-3.1,3.073-2.922C12.092,7.936,10.328,11.353,10.42,11.763Z" fill="#fff"/>
      <circle id="Ellipse_10" data-name="Ellipse 10" cx="0.8" cy="0.8" r="0.8" transform="translate(3.109 9.234)" fill="#fff"/>
      <circle id="Ellipse_11" data-name="Ellipse 11" cx="0.8" cy="0.8" r="0.8" transform="translate(4.563 5.598)" fill="#fff"/>
      <circle id="Ellipse_12" data-name="Ellipse 12" cx="0.728" cy="0.728" r="0.728" transform="translate(11.909 5.67)" fill="#fff"/>
      <circle id="Ellipse_13" data-name="Ellipse 13" cx="0.728" cy="0.728" r="0.728" transform="translate(8.273 4.216)" fill="#fff"/>
      <circle id="Ellipse_14" data-name="Ellipse 14" cx="0.728" cy="0.728" r="0.728" transform="translate(13.363 9.307)" fill="#fff"/>
    </g>
  </g>
</svg>
